<svg width="21" height="24" viewBox="0 0 21 24" fill="none" xmlns="http://www.w3.org/2000/svg">
<g clip-path="url(#clip0_2998_5)">
<path d="M10.5002 22.5C9.67243 22.5 9.00024 21.8259 9.00024 20.9986H7.50024C7.50024 22.6537 8.84649 24 10.5002 24C12.154 24 13.5002 22.6537 13.5002 20.9986H12.0002C12.0002 21.8259 11.3281 22.5 10.5002 22.5ZM20.3149 15.6942C19.0043 14.4464 18.0021 13.1405 18.0021 8.71406C18.0021 4.98328 15.0307 1.94062 11.2502 1.57266V0.75C11.2502 0.335625 10.9146 0 10.5002 0C10.0859 0 9.75024 0.335625 9.75024 0.75V1.57313C5.96976 1.94109 2.99835 4.98328 2.99835 8.71406C2.99835 13.14 1.9957 14.4464 0.685069 15.6942C0.0302243 16.3177 -0.176495 17.2603 0.157725 18.0956C0.498975 18.9487 1.32023 19.5 2.25023 19.5H18.7503C19.6803 19.5 20.5015 18.9483 20.8428 18.0952C21.177 17.2598 20.9698 16.3177 20.3149 15.6942ZM18.7503 18H2.25023C1.5832 18 1.24991 17.228 1.7196 16.7808C3.35367 15.225 4.49836 13.4836 4.49836 8.71453C4.49836 5.55609 7.18289 3 10.5002 3C13.8171 3 16.5021 5.55562 16.5021 8.71406C16.5021 13.4648 17.637 15.2156 19.2809 16.7803C19.7524 17.2298 19.4145 18 18.7503 18Z" fill="white"/>
</g>
<defs>
<clipPath id="clip0_2998_5">
<rect width="21" height="24" fill="white"/>
</clipPath>
</defs>
</svg>
