<svg width="24" height="27" viewBox="0 0 24 27" fill="none" xmlns="http://www.w3.org/2000/svg">
<path d="M0.98842 11.0018C0.34857 10.9259 -0.11448 10.3437 0.024883 9.71465C0.427102 7.89905 1.25898 6.19998 2.4576 4.76351C3.9062 3.02746 5.82805 1.74975 7.9894 1.08578C10.1508 0.421812 12.4585 0.400199 14.6319 1.02357C16.8053 1.64694 18.7507 2.88843 20.2316 4.59704C21.7125 6.30565 22.6649 8.40776 22.9731 10.6477C23.2814 12.8876 22.9321 15.1689 21.9677 17.2139C21.0034 19.259 19.4656 20.9798 17.5413 22.167C15.9491 23.1494 14.1491 23.7314 12.2947 23.8716C11.6522 23.9201 11.1417 23.379 11.1575 22.7349C11.1734 22.0908 11.7102 21.589 12.3513 21.5244C13.7525 21.3832 15.109 20.926 16.3161 20.1813C17.8555 19.2315 19.0858 17.8548 19.8573 16.2188C20.6287 14.5827 20.9082 12.7577 20.6616 10.9658C20.415 9.17382 19.653 7.49214 18.4684 6.12525C17.2837 4.75836 15.7273 3.76517 13.9886 3.26647C12.2499 2.76777 10.4037 2.78507 8.6746 3.31624C6.94552 3.84741 5.40804 4.86958 4.24916 6.25842C3.34042 7.34749 2.69518 8.62523 2.35629 9.99219C2.20125 10.6176 1.62827 11.0777 0.98842 11.0018Z" fill="url(#paint0_linear_1075_87161)"/>
<path d="M5.673 10.9854C5.06727 10.8532 4.67505 10.25 4.90222 9.67317C5.24964 8.79097 5.77418 7.98477 6.44767 7.30637C7.38602 6.36117 8.57454 5.70329 9.87372 5.40996C11.1729 5.11663 12.5288 5.20002 13.7822 5.65035C15.0357 6.10069 16.1346 6.89926 16.95 7.95233C17.7655 9.0054 18.2636 10.2692 18.3858 11.5955C18.5081 12.9218 18.2495 14.2554 17.6403 15.4398C17.0311 16.6242 16.0967 17.6102 14.9467 18.2821C14.1213 18.7643 13.2095 19.0704 12.2684 19.1859C11.653 19.2615 11.1672 18.7307 11.1909 18.1112C11.2146 17.4917 11.7423 17.022 12.3502 16.9002C12.8631 16.7973 13.358 16.61 13.8141 16.3436C14.5952 15.8872 15.23 15.2174 15.6437 14.4129C16.0575 13.6084 16.2332 12.7025 16.1502 11.8016C16.0671 10.9007 15.7288 10.0422 15.1749 9.32691C14.621 8.6116 13.8745 8.06915 13.0231 7.76326C12.1717 7.45736 11.2507 7.40071 10.3682 7.59996C9.4857 7.79921 8.67837 8.24609 8.04098 8.88813C7.66883 9.263 7.36364 9.69531 7.13569 10.1661C6.86553 10.7241 6.27873 11.1175 5.673 10.9854Z" fill="url(#paint1_linear_1075_87161)"/>
<path d="M11.4154 26.5714C10.8631 26.5714 10.4154 26.1237 10.4154 25.5714L10.4154 12.2381C10.4154 11.6858 10.8631 11.2381 11.4154 11.2381C11.9677 11.2381 12.4154 11.6858 12.4154 12.2381L12.4154 25.5714C12.4154 26.1237 11.9677 26.5714 11.4154 26.5714Z" fill="#58B182"/>
<path d="M14.4154 12.2381C14.4154 13.8949 13.0722 15.2381 11.4154 15.2381C9.75853 15.2381 8.41539 13.8949 8.41539 12.2381C8.41539 10.5812 9.75853 9.23808 11.4154 9.23808C13.0722 9.23808 14.4154 10.5812 14.4154 12.2381Z" fill="#58B182"/>
<defs>
<linearGradient id="paint0_linear_1075_87161" x1="-0.659488" y1="9.4857" x2="15.5909" y2="30.3178" gradientUnits="userSpaceOnUse">
<stop offset="0.0102014" stop-color="#6AB990" stop-opacity="0.2"/>
<stop offset="1" stop-color="#6AB990"/>
</linearGradient>
<linearGradient id="paint1_linear_1075_87161" x1="-0.659488" y1="9.4857" x2="18.2239" y2="26.874" gradientUnits="userSpaceOnUse">
<stop offset="0.0102014" stop-color="#6AB990" stop-opacity="0.2"/>
<stop offset="1" stop-color="#6AB990"/>
</linearGradient>
</defs>
</svg>
